<?xml version="1.0" encoding="UTF-8" standalone="no"?>
<!-- Created with Inkscape (http://www.inkscape.org/) -->

<svg
   width="1000.0146"
   height="545.46252"
   viewBox="0 0 264.58718 144.32029"
   version="1.1"
   id="svg1"
   inkscape:version="1.3 (0e150ed6c4, 2023-07-21)"
   sodipodi:docname="bg-gamemodes.svg"
   xml:space="preserve"
   xmlns:inkscape="http://www.inkscape.org/namespaces/inkscape"
   xmlns:sodipodi="http://sodipodi.sourceforge.net/DTD/sodipodi-0.dtd"
   xmlns="http://www.w3.org/2000/svg"
   xmlns:svg="http://www.w3.org/2000/svg"><sodipodi:namedview
     id="namedview1"
     pagecolor="#ffffff"
     bordercolor="#000000"
     borderopacity="0.25"
     inkscape:showpageshadow="2"
     inkscape:pageopacity="0.0"
     inkscape:pagecheckerboard="0"
     inkscape:deskcolor="#d1d1d1"
     inkscape:document-units="mm"
     inkscape:lockguides="true"
     inkscape:zoom="0.69722222"
     inkscape:cx="540"
     inkscape:cy="540"
     inkscape:window-width="1920"
     inkscape:window-height="991"
     inkscape:window-x="-9"
     inkscape:window-y="-9"
     inkscape:window-maximized="1"
     inkscape:current-layer="layer1"><sodipodi:guide
       position="0,285.75"
       orientation="0,1080"
       inkscape:locked="true"
       id="guide1" /><sodipodi:guide
       position="285.75,285.75"
       orientation="1080,0"
       inkscape:locked="true"
       id="guide2" /><sodipodi:guide
       position="285.75,0"
       orientation="0,-1080"
       inkscape:locked="true"
       id="guide3" /><sodipodi:guide
       position="0,0"
       orientation="-1080,0"
       inkscape:locked="true"
       id="guide4" /></sodipodi:namedview><defs
     id="defs1" /><g
     inkscape:label="Layer 1"
     inkscape:groupmode="layer"
     id="layer1"
     transform="translate(-344.52562,-78.114746)"><g
       transform="matrix(0.36536787,0,0,0.36536787,344.5256,78.114746)"
       id="g171"><rect
         x="0"
         y="0"
         width="724.16669"
         height="395"
         fill="#f5fdff"
         id="rect1" /><g
         transform="matrix(0.329,0,0,0.329,13.17,13.17)"
         id="g1"><path
           d="M 10,5 5,0 0,5 l 5,5 -5,5 5,5 5,-5 5,5 5,-5 -5,-5 5,-5 -5,-5 z"
           fill="#f6cbcc"
           id="path1" /></g><g
         transform="matrix(0.329,0,0,0.329,46.08,13.17)"
         id="g2"><path
           d="M 10,5 5,0 0,5 l 5,5 -5,5 5,5 5,-5 5,5 5,-5 -5,-5 5,-5 -5,-5 z"
           fill="#e9d26a"
           id="path2" /></g><g
         transform="matrix(0.329,0,0,0.329,79,13.17)"
         id="g3"><path
           d="M 10,5 5,0 0,5 l 5,5 -5,5 5,5 5,-5 5,5 5,-5 -5,-5 5,-5 -5,-5 z"
           fill="#9cc3f4"
           id="path3" /></g><g
         transform="matrix(0.329,0,0,0.329,111.92,13.17)"
         id="g4"><path
           d="M 10,5 5,0 0,5 l 5,5 -5,5 5,5 5,-5 5,5 5,-5 -5,-5 5,-5 -5,-5 z"
           fill="#f95e5e"
           id="path4" /></g><circle
         cx="148.12"
         cy="16.459999"
         r="3.29"
         fill="#c7f8d5"
         id="circle4" /><circle
         cx="181.03999"
         cy="16.459999"
         r="3.29"
         fill="#ead576"
         id="circle5" /><circle
         cx="213.96001"
         cy="16.459999"
         r="3.29"
         fill="#efe8b5"
         id="circle6" /><circle
         cx="246.87"
         cy="16.459999"
         r="3.29"
         fill="#c0daf9"
         id="circle7" /><g
         transform="matrix(0.329,0,0,0.329,276.5,13.17)"
         id="g7"><path
           d="M 10,5 5,0 0,5 l 5,5 -5,5 5,5 5,-5 5,5 5,-5 -5,-5 5,-5 -5,-5 z"
           fill="#e9e4ff"
           id="path7" /></g><circle
         cx="312.70999"
         cy="16.459999"
         r="3.29"
         fill="#f1fafe"
         id="circle8" /><circle
         cx="345.62"
         cy="16.459999"
         r="3.29"
         fill="#e6ddff"
         id="circle9" /><circle
         cx="378.54001"
         cy="16.459999"
         r="3.29"
         fill="#e6fbf2"
         id="circle10" /><circle
         cx="411.45999"
         cy="16.459999"
         r="3.29"
         fill="#cda9fe"
         id="circle11" /><g
         transform="matrix(0.329,0,0,0.329,441.08,13.17)"
         id="g11"><path
           d="M 10,5 5,0 0,5 l 5,5 -5,5 5,5 5,-5 5,5 5,-5 -5,-5 5,-5 -5,-5 z"
           fill="#75aaef"
           id="path11" /></g><circle
         cx="477.29001"
         cy="16.459999"
         r="3.29"
         fill="#f6bebf"
         id="circle12" /><circle
         cx="510.20999"
         cy="16.459999"
         r="3.29"
         fill="#e0fbec"
         id="circle13" /><g
         transform="matrix(0.329,0,0,0.329,539.83,13.17)"
         id="g13"><path
           d="M 10,5 5,0 0,5 l 5,5 -5,5 5,5 5,-5 5,5 5,-5 -5,-5 5,-5 -5,-5 z"
           fill="#619ded"
           id="path13" /></g><circle
         cx="576.03998"
         cy="16.459999"
         r="3.29"
         fill="#d1b0fe"
         id="circle14" /><circle
         cx="608.96002"
         cy="16.459999"
         r="3.29"
         fill="#c9a1fe"
         id="circle15" /><g
         transform="matrix(0.329,0,0,0.329,638.58,13.17)"
         id="g15"><path
           d="M 10,5 5,0 0,5 l 5,5 -5,5 5,5 5,-5 5,5 5,-5 -5,-5 5,-5 -5,-5 z"
           fill="#d9c2fe"
           id="path15" /></g><circle
         cx="674.78998"
         cy="16.459999"
         r="3.29"
         fill="#77abf0"
         id="circle16" /><circle
         cx="707.71002"
         cy="16.459999"
         r="3.29"
         fill="#daecfc"
         id="circle17" /><g
         transform="matrix(0.329,0,0,0.329,13.17,46.08)"
         id="g17"><path
           d="M 10,5 5,0 0,5 l 5,5 -5,5 5,5 5,-5 5,5 5,-5 -5,-5 5,-5 -5,-5 z"
           fill="#f86e6e"
           id="path17" /></g><g
         transform="matrix(0.329,0,0,0.329,46.08,46.08)"
         id="g18"><path
           d="M 10,5 5,0 0,5 l 5,5 -5,5 5,5 5,-5 5,5 5,-5 -5,-5 5,-5 -5,-5 z"
           fill="#f7a3a4"
           id="path18" /></g><g
         transform="matrix(0.329,0,0,0.329,79,46.08)"
         id="g19"><path
           d="M 10,5 5,0 0,5 l 5,5 -5,5 5,5 5,-5 5,5 5,-5 -5,-5 5,-5 -5,-5 z"
           fill="#67ee7e"
           id="path19" /></g><circle
         cx="115.21"
         cy="49.369999"
         r="3.29"
         fill="#f5ebed"
         id="circle19" /><circle
         cx="148.12"
         cy="49.369999"
         r="3.29"
         fill="#e9e3ff"
         id="circle20" /><circle
         cx="181.03999"
         cy="49.369999"
         r="3.29"
         fill="#d7eafb"
         id="circle21" /><g
         transform="matrix(0.329,0,0,0.329,210.67,46.08)"
         id="g21"><path
           d="M 10,5 5,0 0,5 l 5,5 -5,5 5,5 5,-5 5,5 5,-5 -5,-5 5,-5 -5,-5 z"
           fill="#f0eabf"
           id="path21" /></g><g
         transform="matrix(0.329,0,0,0.329,243.58,46.08)"
         id="g22"><path
           d="M 10,5 5,0 0,5 l 5,5 -5,5 5,5 5,-5 5,5 5,-5 -5,-5 5,-5 -5,-5 z"
           fill="#f6e0e1"
           id="path22" /></g><g
         transform="matrix(0.329,0,0,0.329,276.5,46.08)"
         id="g23"><path
           d="M 10,5 5,0 0,5 l 5,5 -5,5 5,5 5,-5 5,5 5,-5 -5,-5 5,-5 -5,-5 z"
           fill="#e2f1fd"
           id="path23" /></g><g
         transform="matrix(0.329,0,0,0.329,309.42,46.08)"
         id="g24"><path
           d="M 10,5 5,0 0,5 l 5,5 -5,5 5,5 5,-5 5,5 5,-5 -5,-5 5,-5 -5,-5 z"
           fill="#e7c94e"
           id="path24" /></g><circle
         cx="345.62"
         cy="49.369999"
         r="3.29"
         fill="#d7befe"
         id="circle24" /><g
         transform="matrix(0.329,0,0,0.329,375.25,46.08)"
         id="g25"><path
           d="M 10,5 5,0 0,5 l 5,5 -5,5 5,5 5,-5 5,5 5,-5 -5,-5 5,-5 -5,-5 z"
           fill="#5b99ec"
           id="path25" /></g><circle
         cx="411.45999"
         cy="49.369999"
         r="3.29"
         fill="#ecfcf7"
         id="circle25" /><circle
         cx="444.37"
         cy="49.369999"
         r="3.29"
         fill="#f7a0a1"
         id="circle26" /><g
         transform="matrix(0.329,0,0,0.329,474,46.08)"
         id="g26"><path
           d="M 10,5 5,0 0,5 l 5,5 -5,5 5,5 5,-5 5,5 5,-5 -5,-5 5,-5 -5,-5 z"
           fill="#a656fd"
           id="path26" /></g><g
         transform="matrix(0.329,0,0,0.329,506.92,46.08)"
         id="g27"><path
           d="M 10,5 5,0 0,5 l 5,5 -5,5 5,5 5,-5 5,5 5,-5 -5,-5 5,-5 -5,-5 z"
           fill="#85b4f1"
           id="path27" /></g><circle
         cx="543.12"
         cy="49.369999"
         r="3.29"
         fill="#f96060"
         id="circle27" /><g
         transform="matrix(0.329,0,0,0.329,572.75,46.08)"
         id="g28"><path
           d="M 10,5 5,0 0,5 l 5,5 -5,5 5,5 5,-5 5,5 5,-5 -5,-5 5,-5 -5,-5 z"
           fill="#e8e2ff"
           id="path28" /></g><g
         transform="matrix(0.329,0,0,0.329,605.67,46.08)"
         id="g29"><path
           d="M 10,5 5,0 0,5 l 5,5 -5,5 5,5 5,-5 5,5 5,-5 -5,-5 5,-5 -5,-5 z"
           fill="#f5edef"
           id="path29" /></g><circle
         cx="641.87"
         cy="49.369999"
         r="3.29"
         fill="#f6d2d4"
         id="circle29" /><g
         transform="matrix(0.329,0,0,0.329,671.5,46.08)"
         id="g30"><path
           d="M 10,5 5,0 0,5 l 5,5 -5,5 5,5 5,-5 5,5 5,-5 -5,-5 5,-5 -5,-5 z"
           fill="#edde95"
           id="path30" /></g><g
         transform="matrix(0.329,0,0,0.329,704.42,46.08)"
         id="g31"><path
           d="M 10,5 5,0 0,5 l 5,5 -5,5 5,5 5,-5 5,5 5,-5 -5,-5 5,-5 -5,-5 z"
           fill="#c79cfe"
           id="path31" /></g><circle
         cx="16.459999"
         cy="82.290001"
         r="3.29"
         fill="#49ea62"
         id="circle31" /><circle
         cx="49.369999"
         cy="82.290001"
         r="3.29"
         fill="#f1f0d2"
         id="circle32" /><circle
         cx="82.290001"
         cy="82.290001"
         r="3.29"
         fill="#69ee7f"
         id="circle33" /><g
         transform="matrix(0.329,0,0,0.329,111.92,79)"
         id="g33"><path
           d="M 10,5 5,0 0,5 l 5,5 -5,5 5,5 5,-5 5,5 5,-5 -5,-5 5,-5 -5,-5 z"
           fill="#aef5be"
           id="path33" /></g><circle
         cx="148.12"
         cy="82.290001"
         r="3.29"
         fill="#ebf7fe"
         id="circle34" /><g
         transform="matrix(0.329,0,0,0.329,177.75,79)"
         id="g34"><path
           d="M 10,5 5,0 0,5 l 5,5 -5,5 5,5 5,-5 5,5 5,-5 -5,-5 5,-5 -5,-5 z"
           fill="#c8f8d6"
           id="path34" /></g><g
         transform="matrix(0.329,0,0,0.329,210.67,79)"
         id="g35"><path
           d="M 10,5 5,0 0,5 l 5,5 -5,5 5,5 5,-5 5,5 5,-5 -5,-5 5,-5 -5,-5 z"
           fill="#f5eff1"
           id="path35" /></g><circle
         cx="246.87"
         cy="82.290001"
         r="3.29"
         fill="#ddcafe"
         id="circle35" /><circle
         cx="279.79001"
         cy="82.290001"
         r="3.29"
         fill="#94f2a6"
         id="circle36" /><circle
         cx="312.70999"
         cy="82.290001"
         r="3.29"
         fill="#b97dfd"
         id="circle37" /><g
         transform="matrix(0.329,0,0,0.329,342.33,79)"
         id="g37"><path
           d="M 10,5 5,0 0,5 l 5,5 -5,5 5,5 5,-5 5,5 5,-5 -5,-5 5,-5 -5,-5 z"
           fill="#f6c1c2"
           id="path37" /></g><circle
         cx="378.54001"
         cy="82.290001"
         r="3.29"
         fill="#66ee7c"
         id="circle38" /><g
         transform="matrix(0.329,0,0,0.329,408.17,79)"
         id="g38"><path
           d="M 10,5 5,0 0,5 l 5,5 -5,5 5,5 5,-5 5,5 5,-5 -5,-5 5,-5 -5,-5 z"
           fill="#f3f6e8"
           id="path38" /></g><g
         transform="matrix(0.329,0,0,0.329,441.08,79)"
         id="g39"><path
           d="M 10,5 5,0 0,5 l 5,5 -5,5 5,5 5,-5 5,5 5,-5 -5,-5 5,-5 -5,-5 z"
           fill="#ddfae9"
           id="path39" /></g><circle
         cx="477.29001"
         cy="82.290001"
         r="3.29"
         fill="#f87575"
         id="circle39" /><circle
         cx="510.20999"
         cy="82.290001"
         r="3.29"
         fill="#f7babb"
         id="circle40" /><g
         transform="matrix(0.329,0,0,0.329,539.83,79)"
         id="g40"><path
           d="M 10,5 5,0 0,5 l 5,5 -5,5 5,5 5,-5 5,5 5,-5 -5,-5 5,-5 -5,-5 z"
           fill="#7fb1f1"
           id="path40" /></g><g
         transform="matrix(0.329,0,0,0.329,572.75,79)"
         id="g41"><path
           d="M 10,5 5,0 0,5 l 5,5 -5,5 5,5 5,-5 5,5 5,-5 -5,-5 5,-5 -5,-5 z"
           fill="#86b5f1"
           id="path41" /></g><g
         transform="matrix(0.329,0,0,0.329,605.67,79)"
         id="g42"><path
           d="M 10,5 5,0 0,5 l 5,5 -5,5 5,5 5,-5 5,5 5,-5 -5,-5 5,-5 -5,-5 z"
           fill="#9dc4f4"
           id="path42" /></g><circle
         cx="641.87"
         cy="82.290001"
         r="3.29"
         fill="#f96464"
         id="circle42" /><g
         transform="matrix(0.329,0,0,0.329,671.5,79)"
         id="g43"><path
           d="M 10,5 5,0 0,5 l 5,5 -5,5 5,5 5,-5 5,5 5,-5 -5,-5 5,-5 -5,-5 z"
           fill="#91f2a4"
           id="path43" /></g><g
         transform="matrix(0.329,0,0,0.329,704.42,79)"
         id="g44"><path
           d="M 10,5 5,0 0,5 l 5,5 -5,5 5,5 5,-5 5,5 5,-5 -5,-5 5,-5 -5,-5 z"
           fill="#bbd7f8"
           id="path44" /></g><g
         transform="matrix(0.329,0,0,0.329,13.17,111.92)"
         id="g45"><path
           d="M 10,5 5,0 0,5 l 5,5 -5,5 5,5 5,-5 5,5 5,-5 -5,-5 5,-5 -5,-5 z"
           fill="#5595eb"
           id="path45" /></g><circle
         cx="49.369999"
         cy="115.21"
         r="3.29"
         fill="#9af3ac"
         id="circle45" /><g
         transform="matrix(0.329,0,0,0.329,79,111.92)"
         id="g46"><path
           d="M 10,5 5,0 0,5 l 5,5 -5,5 5,5 5,-5 5,5 5,-5 -5,-5 5,-5 -5,-5 z"
           fill="#f4f9f0"
           id="path46" /></g><g
         transform="matrix(0.329,0,0,0.329,111.92,111.92)"
         id="g47"><path
           d="M 10,5 5,0 0,5 l 5,5 -5,5 5,5 5,-5 5,5 5,-5 -5,-5 5,-5 -5,-5 z"
           fill="#67a1ee"
           id="path47" /></g><circle
         cx="148.12"
         cy="115.21"
         r="3.29"
         fill="#f1efce"
         id="circle47" /><circle
         cx="181.03999"
         cy="115.21"
         r="3.29"
         fill="#cda9fe"
         id="circle48" /><g
         transform="matrix(0.329,0,0,0.329,210.67,111.92)"
         id="g48"><path
           d="M 10,5 5,0 0,5 l 5,5 -5,5 5,5 5,-5 5,5 5,-5 -5,-5 5,-5 -5,-5 z"
           fill="#efe6b0"
           id="path48" /></g><circle
         cx="246.87"
         cy="115.21"
         r="3.29"
         fill="#f7a1a2"
         id="circle49" /><g
         transform="matrix(0.329,0,0,0.329,276.5,111.92)"
         id="g49"><path
           d="M 10,5 5,0 0,5 l 5,5 -5,5 5,5 5,-5 5,5 5,-5 -5,-5 5,-5 -5,-5 z"
           fill="#80b1f1"
           id="path49" /></g><circle
         cx="312.70999"
         cy="115.21"
         r="3.29"
         fill="#f0f1ff"
         id="circle50" /><circle
         cx="345.62"
         cy="115.21"
         r="3.29"
         fill="#e3d7ff"
         id="circle51" /><circle
         cx="378.54001"
         cy="115.21"
         r="3.29"
         fill="#f7a5a6"
         id="circle52" /><circle
         cx="411.45999"
         cy="115.21"
         r="3.29"
         fill="#7eaff0"
         id="circle53" /><g
         transform="matrix(0.329,0,0,0.329,441.08,111.92)"
         id="g53"><path
           d="M 10,5 5,0 0,5 l 5,5 -5,5 5,5 5,-5 5,5 5,-5 -5,-5 5,-5 -5,-5 z"
           fill="#3581e8"
           id="path53" /></g><g
         transform="matrix(0.329,0,0,0.329,474,111.92)"
         id="g54"><path
           d="M 10,5 5,0 0,5 l 5,5 -5,5 5,5 5,-5 5,5 5,-5 -5,-5 5,-5 -5,-5 z"
           fill="#9cc3f4"
           id="path54" /></g><circle
         cx="510.20999"
         cy="115.21"
         r="3.29"
         fill="#c7f8d5"
         id="circle54" /><g
         transform="matrix(0.329,0,0,0.329,539.83,111.92)"
         id="g55"><path
           d="M 10,5 5,0 0,5 l 5,5 -5,5 5,5 5,-5 5,5 5,-5 -5,-5 5,-5 -5,-5 z"
           fill="#f0ecc3"
           id="path55" /></g><g
         transform="matrix(0.329,0,0,0.329,572.75,111.92)"
         id="g56"><path
           d="M 10,5 5,0 0,5 l 5,5 -5,5 5,5 5,-5 5,5 5,-5 -5,-5 5,-5 -5,-5 z"
           fill="#f95454"
           id="path56" /></g><g
         transform="matrix(0.329,0,0,0.329,605.67,111.92)"
         id="g57"><path
           d="M 10,5 5,0 0,5 l 5,5 -5,5 5,5 5,-5 5,5 5,-5 -5,-5 5,-5 -5,-5 z"
           fill="#adcef6"
           id="path57" /></g><circle
         cx="641.87"
         cy="115.21"
         r="3.29"
         fill="#a8cbf6"
         id="circle57" /><g
         transform="matrix(0.329,0,0,0.329,671.5,111.92)"
         id="g58"><path
           d="M 10,5 5,0 0,5 l 5,5 -5,5 5,5 5,-5 5,5 5,-5 -5,-5 5,-5 -5,-5 z"
           fill="#c3f8d1"
           id="path58" /></g><circle
         cx="707.71002"
         cy="115.21"
         r="3.29"
         fill="#dac5fe"
         id="circle58" /><g
         transform="matrix(0.329,0,0,0.329,13.17,144.83)"
         id="g59"><path
           d="M 10,5 5,0 0,5 l 5,5 -5,5 5,5 5,-5 5,5 5,-5 -5,-5 5,-5 -5,-5 z"
           fill="#f7b1b3"
           id="path59" /></g><circle
         cx="49.369999"
         cy="148.12"
         r="3.29"
         fill="#ddfae9"
         id="circle59" /><circle
         cx="82.290001"
         cy="148.12"
         r="3.29"
         fill="#f2f7ff"
         id="circle60" /><circle
         cx="115.21"
         cy="148.12"
         r="3.29"
         fill="#80f094"
         id="circle61" /><circle
         cx="148.12"
         cy="148.12"
         r="3.29"
         fill="#f79394"
         id="circle62" /><circle
         cx="181.03999"
         cy="148.12"
         r="3.29"
         fill="#7daff0"
         id="circle63" /><g
         transform="matrix(0.329,0,0,0.329,210.67,144.83)"
         id="g63"><path
           d="M 10,5 5,0 0,5 l 5,5 -5,5 5,5 5,-5 5,5 5,-5 -5,-5 5,-5 -5,-5 z"
           fill="#f5f8fa"
           id="path63" /></g><g
         transform="matrix(0.329,0,0,0.329,243.58,144.83)"
         id="g64"><path
           d="M 10,5 5,0 0,5 l 5,5 -5,5 5,5 5,-5 5,5 5,-5 -5,-5 5,-5 -5,-5 z"
           fill="#f87d7e"
           id="path64" /></g><circle
         cx="279.79001"
         cy="148.12"
         r="3.29"
         fill="#b06bfd"
         id="circle64" /><circle
         cx="312.70999"
         cy="148.12"
         r="3.29"
         fill="#f7b8b9"
         id="circle65" /><circle
         cx="345.62"
         cy="148.12"
         r="3.29"
         fill="#a8cbf6"
         id="circle66" /><g
         transform="matrix(0.329,0,0,0.329,375.25,144.83)"
         id="g66"><path
           d="M 10,5 5,0 0,5 l 5,5 -5,5 5,5 5,-5 5,5 5,-5 -5,-5 5,-5 -5,-5 z"
           fill="#e8e1ff"
           id="path66" /></g><g
         transform="matrix(0.329,0,0,0.329,408.17,144.83)"
         id="g67"><path
           d="M 10,5 5,0 0,5 l 5,5 -5,5 5,5 5,-5 5,5 5,-5 -5,-5 5,-5 -5,-5 z"
           fill="#4aea62"
           id="path67" /></g><circle
         cx="444.37"
         cy="148.12"
         r="3.29"
         fill="#e8ce5d"
         id="circle67" /><circle
         cx="477.29001"
         cy="148.12"
         r="3.29"
         fill="#e6ddff"
         id="circle68" /><g
         transform="matrix(0.329,0,0,0.329,506.92,144.83)"
         id="g68"><path
           d="M 10,5 5,0 0,5 l 5,5 -5,5 5,5 5,-5 5,5 5,-5 -5,-5 5,-5 -5,-5 z"
           fill="#f4f8ed"
           id="path68" /></g><g
         transform="matrix(0.329,0,0,0.329,539.83,144.83)"
         id="g69"><path
           d="M 10,5 5,0 0,5 l 5,5 -5,5 5,5 5,-5 5,5 5,-5 -5,-5 5,-5 -5,-5 z"
           fill="#f1fdfb"
           id="path69" /></g><circle
         cx="576.03998"
         cy="148.12"
         r="3.29"
         fill="#f6d3d4"
         id="circle69" /><circle
         cx="608.96002"
         cy="148.12"
         r="3.29"
         fill="#e0d1fe"
         id="circle70" /><g
         transform="matrix(0.329,0,0,0.329,638.58,144.83)"
         id="g70"><path
           d="M 10,5 5,0 0,5 l 5,5 -5,5 5,5 5,-5 5,5 5,-5 -5,-5 5,-5 -5,-5 z"
           fill="#b97efd"
           id="path70" /></g><g
         transform="matrix(0.329,0,0,0.329,671.5,144.83)"
         id="g71"><path
           d="M 10,5 5,0 0,5 l 5,5 -5,5 5,5 5,-5 5,5 5,-5 -5,-5 5,-5 -5,-5 z"
           fill="#adf5be"
           id="path71" /></g><circle
         cx="707.71002"
         cy="148.12"
         r="3.29"
         fill="#bad7f8"
         id="circle71" /><g
         transform="matrix(0.329,0,0,0.329,13.17,177.75)"
         id="g72"><path
           d="M 10,5 5,0 0,5 l 5,5 -5,5 5,5 5,-5 5,5 5,-5 -5,-5 5,-5 -5,-5 z"
           fill="#4beb63"
           id="path72" /></g><g
         transform="matrix(0.329,0,0,0.329,46.08,177.75)"
         id="g73"><path
           d="M 10,5 5,0 0,5 l 5,5 -5,5 5,5 5,-5 5,5 5,-5 -5,-5 5,-5 -5,-5 z"
           fill="#b7f6c7"
           id="path73" /></g><circle
         cx="82.290001"
         cy="181.03999"
         r="3.29"
         fill="#a4f4b5"
         id="circle73" /><g
         transform="matrix(0.329,0,0,0.329,111.92,177.75)"
         id="g74"><path
           d="M 10,5 5,0 0,5 l 5,5 -5,5 5,5 5,-5 5,5 5,-5 -5,-5 5,-5 -5,-5 z"
           fill="#6da4ee"
           id="path74" /></g><g
         transform="matrix(0.329,0,0,0.329,144.83,177.75)"
         id="g75"><path
           d="M 10,5 5,0 0,5 l 5,5 -5,5 5,5 5,-5 5,5 5,-5 -5,-5 5,-5 -5,-5 z"
           fill="#f3f4e0"
           id="path75" /></g><g
         transform="matrix(0.329,0,0,0.329,177.75,177.75)"
         id="g76"><path
           d="M 10,5 5,0 0,5 l 5,5 -5,5 5,5 5,-5 5,5 5,-5 -5,-5 5,-5 -5,-5 z"
           fill="#c1f7d0"
           id="path76" /></g><circle
         cx="213.96001"
         cy="181.03999"
         r="3.29"
         fill="#458bea"
         id="circle76" /><g
         transform="matrix(0.329,0,0,0.329,243.58,177.75)"
         id="g77"><path
           d="M 10,5 5,0 0,5 l 5,5 -5,5 5,5 5,-5 5,5 5,-5 -5,-5 5,-5 -5,-5 z"
           fill="#b371fd"
           id="path77" /></g><circle
         cx="279.79001"
         cy="181.03999"
         r="3.29"
         fill="#93f2a5"
         id="circle77" /><g
         transform="matrix(0.329,0,0,0.329,309.42,177.75)"
         id="g78"><path
           d="M 10,5 5,0 0,5 l 5,5 -5,5 5,5 5,-5 5,5 5,-5 -5,-5 5,-5 -5,-5 z"
           fill="#e7fbf2"
           id="path78" /></g><g
         transform="matrix(0.329,0,0,0.329,342.33,177.75)"
         id="g79"><path
           d="M 10,5 5,0 0,5 l 5,5 -5,5 5,5 5,-5 5,5 5,-5 -5,-5 5,-5 -5,-5 z"
           fill="#50eb68"
           id="path79" /></g><circle
         cx="378.54001"
         cy="181.03999"
         r="3.29"
         fill="#8df2a0"
         id="circle79" /><circle
         cx="411.45999"
         cy="181.03999"
         r="3.29"
         fill="#f5f7f9"
         id="circle80" /><circle
         cx="444.37"
         cy="181.03999"
         r="3.29"
         fill="#be89fe"
         id="circle81" /><circle
         cx="477.29001"
         cy="181.03999"
         r="3.29"
         fill="#c5f8d3"
         id="circle82" /><g
         transform="matrix(0.329,0,0,0.329,506.92,177.75)"
         id="g82"><path
           d="M 10,5 5,0 0,5 l 5,5 -5,5 5,5 5,-5 5,5 5,-5 -5,-5 5,-5 -5,-5 z"
           fill="#dac4fe"
           id="path82" /></g><circle
         cx="543.12"
         cy="181.03999"
         r="3.29"
         fill="#f1eecb"
         id="circle83" /><g
         transform="matrix(0.329,0,0,0.329,572.75,177.75)"
         id="g83"><path
           d="M 10,5 5,0 0,5 l 5,5 -5,5 5,5 5,-5 5,5 5,-5 -5,-5 5,-5 -5,-5 z"
           fill="#f7b9ba"
           id="path83" /></g><g
         transform="matrix(0.329,0,0,0.329,605.67,177.75)"
         id="g84"><path
           d="M 10,5 5,0 0,5 l 5,5 -5,5 5,5 5,-5 5,5 5,-5 -5,-5 5,-5 -5,-5 z"
           fill="#f4fbff"
           id="path84" /></g><circle
         cx="641.87"
         cy="181.03999"
         r="3.29"
         fill="#ede19d"
         id="circle84" /><g
         transform="matrix(0.329,0,0,0.329,671.5,177.75)"
         id="g85"><path
           d="M 10,5 5,0 0,5 l 5,5 -5,5 5,5 5,-5 5,5 5,-5 -5,-5 5,-5 -5,-5 z"
           fill="#c5def9"
           id="path85" /></g><g
         transform="matrix(0.329,0,0,0.329,704.42,177.75)"
         id="g86"><path
           d="M 10,5 5,0 0,5 l 5,5 -5,5 5,5 5,-5 5,5 5,-5 -5,-5 5,-5 -5,-5 z"
           fill="#ad65fd"
           id="path86" /></g><circle
         cx="16.459999"
         cy="213.96001"
         r="3.29"
         fill="#9ec4f4"
         id="circle86" /><circle
         cx="49.369999"
         cy="213.96001"
         r="3.29"
         fill="#af6afd"
         id="circle87" /><circle
         cx="82.290001"
         cy="213.96001"
         r="3.29"
         fill="#74a9ef"
         id="circle88" /><g
         transform="matrix(0.329,0,0,0.329,111.92,210.67)"
         id="g88"><path
           d="M 10,5 5,0 0,5 l 5,5 -5,5 5,5 5,-5 5,5 5,-5 -5,-5 5,-5 -5,-5 z"
           fill="#3e86e9"
           id="path88" /></g><g
         transform="matrix(0.329,0,0,0.329,144.83,210.67)"
         id="g89"><path
           d="M 10,5 5,0 0,5 l 5,5 -5,5 5,5 5,-5 5,5 5,-5 -5,-5 5,-5 -5,-5 z"
           fill="#e7f4fd"
           id="path89" /></g><g
         transform="matrix(0.329,0,0,0.329,177.75,210.67)"
         id="g90"><path
           d="M 10,5 5,0 0,5 l 5,5 -5,5 5,5 5,-5 5,5 5,-5 -5,-5 5,-5 -5,-5 z"
           fill="#c190fe"
           id="path90" /></g><circle
         cx="213.96001"
         cy="213.96001"
         r="3.29"
         fill="#ab61fd"
         id="circle90" /><circle
         cx="246.87"
         cy="213.96001"
         r="3.29"
         fill="#d0affe"
         id="circle91" /><g
         transform="matrix(0.329,0,0,0.329,276.5,210.67)"
         id="g91"><path
           d="M 10,5 5,0 0,5 l 5,5 -5,5 5,5 5,-5 5,5 5,-5 -5,-5 5,-5 -5,-5 z"
           fill="#9ef4af"
           id="path91" /></g><g
         transform="matrix(0.329,0,0,0.329,309.42,210.67)"
         id="g92"><path
           d="M 10,5 5,0 0,5 l 5,5 -5,5 5,5 5,-5 5,5 5,-5 -5,-5 5,-5 -5,-5 z"
           fill="#83f197"
           id="path92" /></g><g
         transform="matrix(0.329,0,0,0.329,342.33,210.67)"
         id="g93"><path
           d="M 10,5 5,0 0,5 l 5,5 -5,5 5,5 5,-5 5,5 5,-5 -5,-5 5,-5 -5,-5 z"
           fill="#eae6ff"
           id="path93" /></g><g
         transform="matrix(0.329,0,0,0.329,375.25,210.67)"
         id="g94"><path
           d="M 10,5 5,0 0,5 l 5,5 -5,5 5,5 5,-5 5,5 5,-5 -5,-5 5,-5 -5,-5 z"
           fill="#f6e4e5"
           id="path94" /></g><circle
         cx="411.45999"
         cy="213.96001"
         r="3.29"
         fill="#4f91eb"
         id="circle94" /><circle
         cx="444.37"
         cy="213.96001"
         r="3.29"
         fill="#e8ce5e"
         id="circle95" /><g
         transform="matrix(0.329,0,0,0.329,474,210.67)"
         id="g95"><path
           d="M 10,5 5,0 0,5 l 5,5 -5,5 5,5 5,-5 5,5 5,-5 -5,-5 5,-5 -5,-5 z"
           fill="#e9f5fe"
           id="path95" /></g><g
         transform="matrix(0.329,0,0,0.329,506.92,210.67)"
         id="g96"><path
           d="M 10,5 5,0 0,5 l 5,5 -5,5 5,5 5,-5 5,5 5,-5 -5,-5 5,-5 -5,-5 z"
           fill="#c2f7d0"
           id="path96" /></g><g
         transform="matrix(0.329,0,0,0.329,539.83,210.67)"
         id="g97"><path
           d="M 10,5 5,0 0,5 l 5,5 -5,5 5,5 5,-5 5,5 5,-5 -5,-5 5,-5 -5,-5 z"
           fill="#bef7cd"
           id="path97" /></g><circle
         cx="576.03998"
         cy="213.96001"
         r="3.29"
         fill="#e0fbec"
         id="circle97" /><g
         transform="matrix(0.329,0,0,0.329,605.67,210.67)"
         id="g98"><path
           d="M 10,5 5,0 0,5 l 5,5 -5,5 5,5 5,-5 5,5 5,-5 -5,-5 5,-5 -5,-5 z"
           fill="#ecdd90"
           id="path98" /></g><circle
         cx="641.87"
         cy="213.96001"
         r="3.29"
         fill="#a5f4b6"
         id="circle98" /><circle
         cx="674.78998"
         cy="213.96001"
         r="3.29"
         fill="#f0eabf"
         id="circle99" /><g
         transform="matrix(0.329,0,0,0.329,704.42,210.67)"
         id="g99"><path
           d="M 10,5 5,0 0,5 l 5,5 -5,5 5,5 5,-5 5,5 5,-5 -5,-5 5,-5 -5,-5 z"
           fill="#86f199"
           id="path99" /></g><circle
         cx="16.459999"
         cy="246.87"
         r="3.29"
         fill="#b9f7c8"
         id="circle100" /><circle
         cx="49.369999"
         cy="246.87"
         r="3.29"
         fill="#f0e9ba"
         id="circle101" /><g
         transform="matrix(0.329,0,0,0.329,79,243.58)"
         id="g101"><path
           d="M 10,5 5,0 0,5 l 5,5 -5,5 5,5 5,-5 5,5 5,-5 -5,-5 5,-5 -5,-5 z"
           fill="#d3f9e0"
           id="path101" /></g><g
         transform="matrix(0.329,0,0,0.329,111.92,243.58)"
         id="g102"><path
           d="M 10,5 5,0 0,5 l 5,5 -5,5 5,5 5,-5 5,5 5,-5 -5,-5 5,-5 -5,-5 z"
           fill="#efe6af"
           id="path102" /></g><g
         transform="matrix(0.329,0,0,0.329,144.83,243.58)"
         id="g103"><path
           d="M 10,5 5,0 0,5 l 5,5 -5,5 5,5 5,-5 5,5 5,-5 -5,-5 5,-5 -5,-5 z"
           fill="#70a7ef"
           id="path103" /></g><circle
         cx="181.03999"
         cy="246.87"
         r="3.29"
         fill="#f3f7ec"
         id="circle103" /><g
         transform="matrix(0.329,0,0,0.329,210.67,243.58)"
         id="g104"><path
           d="M 10,5 5,0 0,5 l 5,5 -5,5 5,5 5,-5 5,5 5,-5 -5,-5 5,-5 -5,-5 z"
           fill="#a4f4b5"
           id="path104" /></g><g
         transform="matrix(0.329,0,0,0.329,243.58,243.58)"
         id="g105"><path
           d="M 10,5 5,0 0,5 l 5,5 -5,5 5,5 5,-5 5,5 5,-5 -5,-5 5,-5 -5,-5 z"
           fill="#eee3a5"
           id="path105" /></g><circle
         cx="279.79001"
         cy="246.87"
         r="3.29"
         fill="#8bb8f2"
         id="circle105" /><circle
         cx="312.70999"
         cy="246.87"
         r="3.29"
         fill="#ebda87"
         id="circle106" /><circle
         cx="345.62"
         cy="246.87"
         r="3.29"
         fill="#c598fe"
         id="circle107" /><g
         transform="matrix(0.329,0,0,0.329,375.25,243.58)"
         id="g107"><path
           d="M 10,5 5,0 0,5 l 5,5 -5,5 5,5 5,-5 5,5 5,-5 -5,-5 5,-5 -5,-5 z"
           fill="#cbf9d9"
           id="path107" /></g><circle
         cx="411.45999"
         cy="246.87"
         r="3.29"
         fill="#efe8b8"
         id="circle108" /><circle
         cx="444.37"
         cy="246.87"
         r="3.29"
         fill="#f6e7e8"
         id="circle109" /><circle
         cx="477.29001"
         cy="246.87"
         r="3.29"
         fill="#a3c7f5"
         id="circle110" /><g
         transform="matrix(0.329,0,0,0.329,506.92,243.58)"
         id="g110"><path
           d="M 10,5 5,0 0,5 l 5,5 -5,5 5,5 5,-5 5,5 5,-5 -5,-5 5,-5 -5,-5 z"
           fill="#f3f4e0"
           id="path110" /></g><circle
         cx="543.12"
         cy="246.87"
         r="3.29"
         fill="#f88c8c"
         id="circle111" /><g
         transform="matrix(0.329,0,0,0.329,572.75,243.58)"
         id="g111"><path
           d="M 10,5 5,0 0,5 l 5,5 -5,5 5,5 5,-5 5,5 5,-5 -5,-5 5,-5 -5,-5 z"
           fill="#f5f5f7"
           id="path111" /></g><g
         transform="matrix(0.329,0,0,0.329,605.67,243.58)"
         id="g112"><path
           d="M 10,5 5,0 0,5 l 5,5 -5,5 5,5 5,-5 5,5 5,-5 -5,-5 5,-5 -5,-5 z"
           fill="#f0e9bb"
           id="path112" /></g><g
         transform="matrix(0.329,0,0,0.329,638.58,243.58)"
         id="g113"><path
           d="M 10,5 5,0 0,5 l 5,5 -5,5 5,5 5,-5 5,5 5,-5 -5,-5 5,-5 -5,-5 z"
           fill="#75aaef"
           id="path113" /></g><circle
         cx="674.78998"
         cy="246.87"
         r="3.29"
         fill="#ceabfe"
         id="circle113" /><g
         transform="matrix(0.329,0,0,0.329,704.42,243.58)"
         id="g114"><path
           d="M 10,5 5,0 0,5 l 5,5 -5,5 5,5 5,-5 5,5 5,-5 -5,-5 5,-5 -5,-5 z"
           fill="#67ee7d"
           id="path114" /></g><g
         transform="matrix(0.329,0,0,0.329,13.17,276.5)"
         id="g115"><path
           d="M 10,5 5,0 0,5 l 5,5 -5,5 5,5 5,-5 5,5 5,-5 -5,-5 5,-5 -5,-5 z"
           fill="#f4f9f3"
           id="path115" /></g><circle
         cx="49.369999"
         cy="279.79001"
         r="3.29"
         fill="#f5f2f3"
         id="circle115" /><g
         transform="matrix(0.329,0,0,0.329,79,276.5)"
         id="g116"><path
           d="M 10,5 5,0 0,5 l 5,5 -5,5 5,5 5,-5 5,5 5,-5 -5,-5 5,-5 -5,-5 z"
           fill="#8df2a0"
           id="path116" /></g><circle
         cx="115.21"
         cy="279.79001"
         r="3.29"
         fill="#f87474"
         id="circle116" /><circle
         cx="148.12"
         cy="279.79001"
         r="3.29"
         fill="#9ac2f4"
         id="circle117" /><circle
         cx="181.03999"
         cy="279.79001"
         r="3.29"
         fill="#4b8eea"
         id="circle118" /><circle
         cx="213.96001"
         cy="279.79001"
         r="3.29"
         fill="#f5f8fa"
         id="circle119" /><circle
         cx="246.87"
         cy="279.79001"
         r="3.29"
         fill="#50eb68"
         id="circle120" /><circle
         cx="279.79001"
         cy="279.79001"
         r="3.29"
         fill="#c599fe"
         id="circle121" /><g
         transform="matrix(0.329,0,0,0.329,309.42,276.5)"
         id="g121"><path
           d="M 10,5 5,0 0,5 l 5,5 -5,5 5,5 5,-5 5,5 5,-5 -5,-5 5,-5 -5,-5 z"
           fill="#8df2a0"
           id="path121" /></g><circle
         cx="345.62"
         cy="279.79001"
         r="3.29"
         fill="#c292fe"
         id="circle122" /><circle
         cx="378.54001"
         cy="279.79001"
         r="3.29"
         fill="#ebd881"
         id="circle123" /><g
         transform="matrix(0.329,0,0,0.329,408.17,276.5)"
         id="g123"><path
           d="M 10,5 5,0 0,5 l 5,5 -5,5 5,5 5,-5 5,5 5,-5 -5,-5 5,-5 -5,-5 z"
           fill="#f6e5e6"
           id="path123" /></g><g
         transform="matrix(0.329,0,0,0.329,441.08,276.5)"
         id="g124"><path
           d="M 10,5 5,0 0,5 l 5,5 -5,5 5,5 5,-5 5,5 5,-5 -5,-5 5,-5 -5,-5 z"
           fill="#f8696a"
           id="path124" /></g><g
         transform="matrix(0.329,0,0,0.329,474,276.5)"
         id="g125"><path
           d="M 10,5 5,0 0,5 l 5,5 -5,5 5,5 5,-5 5,5 5,-5 -5,-5 5,-5 -5,-5 z"
           fill="#eee4ab"
           id="path125" /></g><circle
         cx="510.20999"
         cy="279.79001"
         r="3.29"
         fill="#f7999a"
         id="circle125" /><circle
         cx="543.12"
         cy="279.79001"
         r="3.29"
         fill="#7af08f"
         id="circle126" /><g
         transform="matrix(0.329,0,0,0.329,572.75,276.5)"
         id="g126"><path
           d="M 10,5 5,0 0,5 l 5,5 -5,5 5,5 5,-5 5,5 5,-5 -5,-5 5,-5 -5,-5 z"
           fill="#8bf29e"
           id="path126" /></g><circle
         cx="608.96002"
         cy="279.79001"
         r="3.29"
         fill="#e4fbef"
         id="circle127" /><g
         transform="matrix(0.329,0,0,0.329,638.58,276.5)"
         id="g127"><path
           d="M 10,5 5,0 0,5 l 5,5 -5,5 5,5 5,-5 5,5 5,-5 -5,-5 5,-5 -5,-5 z"
           fill="#f88787"
           id="path127" /></g><g
         transform="matrix(0.329,0,0,0.329,671.5,276.5)"
         id="g128"><path
           d="M 10,5 5,0 0,5 l 5,5 -5,5 5,5 5,-5 5,5 5,-5 -5,-5 5,-5 -5,-5 z"
           fill="#c598fe"
           id="path128" /></g><circle
         cx="707.71002"
         cy="279.79001"
         r="3.29"
         fill="#ede09a"
         id="circle128" /><g
         transform="matrix(0.329,0,0,0.329,13.17,309.42)"
         id="g129"><path
           d="M 10,5 5,0 0,5 l 5,5 -5,5 5,5 5,-5 5,5 5,-5 -5,-5 5,-5 -5,-5 z"
           fill="#82f196"
           id="path129" /></g><g
         transform="matrix(0.329,0,0,0.329,46.08,309.42)"
         id="g130"><path
           d="M 10,5 5,0 0,5 l 5,5 -5,5 5,5 5,-5 5,5 5,-5 -5,-5 5,-5 -5,-5 z"
           fill="#e8cc58"
           id="path130" /></g><circle
         cx="82.290001"
         cy="312.70999"
         r="3.29"
         fill="#af6afd"
         id="circle130" /><g
         transform="matrix(0.329,0,0,0.329,111.92,309.42)"
         id="g131"><path
           d="M 10,5 5,0 0,5 l 5,5 -5,5 5,5 5,-5 5,5 5,-5 -5,-5 5,-5 -5,-5 z"
           fill="#eddf97"
           id="path131" /></g><circle
         cx="148.12"
         cy="312.70999"
         r="3.29"
         fill="#f95050"
         id="circle131" /><circle
         cx="181.03999"
         cy="312.70999"
         r="3.29"
         fill="#ead575"
         id="circle132" /><circle
         cx="213.96001"
         cy="312.70999"
         r="3.29"
         fill="#f5eff0"
         id="circle133" /><circle
         cx="246.87"
         cy="312.70999"
         r="3.29"
         fill="#f5eced"
         id="circle134" /><circle
         cx="279.79001"
         cy="312.70999"
         r="3.29"
         fill="#e7cb55"
         id="circle135" /><circle
         cx="312.70999"
         cy="312.70999"
         r="3.29"
         fill="#d5fae2"
         id="circle136" /><g
         transform="matrix(0.329,0,0,0.329,342.33,309.42)"
         id="g136"><path
           d="M 10,5 5,0 0,5 l 5,5 -5,5 5,5 5,-5 5,5 5,-5 -5,-5 5,-5 -5,-5 z"
           fill="#f1eecb"
           id="path136" /></g><circle
         cx="378.54001"
         cy="312.70999"
         r="3.29"
         fill="#c89dfe"
         id="circle137" /><circle
         cx="411.45999"
         cy="312.70999"
         r="3.29"
         fill="#f5fdff"
         id="circle138" /><g
         transform="matrix(0.329,0,0,0.329,441.08,309.42)"
         id="g138"><path
           d="M 10,5 5,0 0,5 l 5,5 -5,5 5,5 5,-5 5,5 5,-5 -5,-5 5,-5 -5,-5 z"
           fill="#a95dfd"
           id="path138" /></g><circle
         cx="477.29001"
         cy="312.70999"
         r="3.29"
         fill="#aff5bf"
         id="circle139" /><circle
         cx="510.20999"
         cy="312.70999"
         r="3.29"
         fill="#b474fd"
         id="circle140" /><g
         transform="matrix(0.329,0,0,0.329,539.83,309.42)"
         id="g140"><path
           d="M 10,5 5,0 0,5 l 5,5 -5,5 5,5 5,-5 5,5 5,-5 -5,-5 5,-5 -5,-5 z"
           fill="#b9f7c8"
           id="path140" /></g><circle
         cx="576.03998"
         cy="312.70999"
         r="3.29"
         fill="#efe9b9"
         id="circle141" /><g
         transform="matrix(0.329,0,0,0.329,605.67,309.42)"
         id="g141"><path
           d="M 10,5 5,0 0,5 l 5,5 -5,5 5,5 5,-5 5,5 5,-5 -5,-5 5,-5 -5,-5 z"
           fill="#7daff0"
           id="path141" /></g><g
         transform="matrix(0.329,0,0,0.329,638.58,309.42)"
         id="g142"><path
           d="M 10,5 5,0 0,5 l 5,5 -5,5 5,5 5,-5 5,5 5,-5 -5,-5 5,-5 -5,-5 z"
           fill="#f6d6d7"
           id="path142" /></g><circle
         cx="674.78998"
         cy="312.70999"
         r="3.29"
         fill="#ac62fd"
         id="circle142" /><g
         transform="matrix(0.329,0,0,0.329,704.42,309.42)"
         id="g143"><path
           d="M 10,5 5,0 0,5 l 5,5 -5,5 5,5 5,-5 5,5 5,-5 -5,-5 5,-5 -5,-5 z"
           fill="#f7bbbc"
           id="path143" /></g><circle
         cx="16.459999"
         cy="345.62"
         r="3.29"
         fill="#f6dfe0"
         id="circle143" /><g
         transform="matrix(0.329,0,0,0.329,46.08,342.33)"
         id="g144"><path
           d="M 10,5 5,0 0,5 l 5,5 -5,5 5,5 5,-5 5,5 5,-5 -5,-5 5,-5 -5,-5 z"
           fill="#f88f90"
           id="path144" /></g><circle
         cx="82.290001"
         cy="345.62"
         r="3.29"
         fill="#eae6ff"
         id="circle144" /><g
         transform="matrix(0.329,0,0,0.329,111.92,342.33)"
         id="g145"><path
           d="M 10,5 5,0 0,5 l 5,5 -5,5 5,5 5,-5 5,5 5,-5 -5,-5 5,-5 -5,-5 z"
           fill="#f2f7ff"
           id="path145" /></g><g
         transform="matrix(0.329,0,0,0.329,144.83,342.33)"
         id="g146"><path
           d="M 10,5 5,0 0,5 l 5,5 -5,5 5,5 5,-5 5,5 5,-5 -5,-5 5,-5 -5,-5 z"
           fill="#f2f2db"
           id="path146" /></g><g
         transform="matrix(0.329,0,0,0.329,177.75,342.33)"
         id="g147"><path
           d="M 10,5 5,0 0,5 l 5,5 -5,5 5,5 5,-5 5,5 5,-5 -5,-5 5,-5 -5,-5 z"
           fill="#438ae9"
           id="path147" /></g><g
         transform="matrix(0.329,0,0,0.329,210.67,342.33)"
         id="g148"><path
           d="M 10,5 5,0 0,5 l 5,5 -5,5 5,5 5,-5 5,5 5,-5 -5,-5 5,-5 -5,-5 z"
           fill="#e7c84a"
           id="path148" /></g><g
         transform="matrix(0.329,0,0,0.329,243.58,342.33)"
         id="g149"><path
           d="M 10,5 5,0 0,5 l 5,5 -5,5 5,5 5,-5 5,5 5,-5 -5,-5 5,-5 -5,-5 z"
           fill="#f95050"
           id="path149" /></g><g
         transform="matrix(0.329,0,0,0.329,276.5,342.33)"
         id="g150"><path
           d="M 10,5 5,0 0,5 l 5,5 -5,5 5,5 5,-5 5,5 5,-5 -5,-5 5,-5 -5,-5 z"
           fill="#c0daf8"
           id="path150" /></g><g
         transform="matrix(0.329,0,0,0.329,309.42,342.33)"
         id="g151"><path
           d="M 10,5 5,0 0,5 l 5,5 -5,5 5,5 5,-5 5,5 5,-5 -5,-5 5,-5 -5,-5 z"
           fill="#e2d4ff"
           id="path151" /></g><g
         transform="matrix(0.329,0,0,0.329,342.33,342.33)"
         id="g152"><path
           d="M 10,5 5,0 0,5 l 5,5 -5,5 5,5 5,-5 5,5 5,-5 -5,-5 5,-5 -5,-5 z"
           fill="#f7a8a9"
           id="path152" /></g><circle
         cx="378.54001"
         cy="345.62"
         r="3.29"
         fill="#d8eafb"
         id="circle152" /><g
         transform="matrix(0.329,0,0,0.329,408.17,342.33)"
         id="g153"><path
           d="M 10,5 5,0 0,5 l 5,5 -5,5 5,5 5,-5 5,5 5,-5 -5,-5 5,-5 -5,-5 z"
           fill="#e8cf61"
           id="path153" /></g><circle
         cx="444.37"
         cy="345.62"
         r="3.29"
         fill="#f6bcbe"
         id="circle153" /><circle
         cx="477.29001"
         cy="345.62"
         r="3.29"
         fill="#f7b7b8"
         id="circle154" /><circle
         cx="510.20999"
         cy="345.62"
         r="3.29"
         fill="#f7b6b7"
         id="circle155" /><g
         transform="matrix(0.329,0,0,0.329,539.83,342.33)"
         id="g155"><path
           d="M 10,5 5,0 0,5 l 5,5 -5,5 5,5 5,-5 5,5 5,-5 -5,-5 5,-5 -5,-5 z"
           fill="#ead36f"
           id="path155" /></g><circle
         cx="576.03998"
         cy="345.62"
         r="3.29"
         fill="#8ab7f2"
         id="circle156" /><g
         transform="matrix(0.329,0,0,0.329,605.67,342.33)"
         id="g156"><path
           d="M 10,5 5,0 0,5 l 5,5 -5,5 5,5 5,-5 5,5 5,-5 -5,-5 5,-5 -5,-5 z"
           fill="#5998ec"
           id="path156" /></g><g
         transform="matrix(0.329,0,0,0.329,638.58,342.33)"
         id="g157"><path
           d="M 10,5 5,0 0,5 l 5,5 -5,5 5,5 5,-5 5,5 5,-5 -5,-5 5,-5 -5,-5 z"
           fill="#dfeffc"
           id="path157" /></g><circle
         cx="674.78998"
         cy="345.62"
         r="3.29"
         fill="#f6bcbd"
         id="circle157" /><g
         transform="matrix(0.329,0,0,0.329,704.42,342.33)"
         id="g158"><path
           d="M 10,5 5,0 0,5 l 5,5 -5,5 5,5 5,-5 5,5 5,-5 -5,-5 5,-5 -5,-5 z"
           fill="#c393fe"
           id="path158" /></g><circle
         cx="16.459999"
         cy="378.54001"
         r="3.29"
         fill="#c9f8d7"
         id="circle158" /><g
         transform="matrix(0.329,0,0,0.329,46.08,375.25)"
         id="g159"><path
           d="M 10,5 5,0 0,5 l 5,5 -5,5 5,5 5,-5 5,5 5,-5 -5,-5 5,-5 -5,-5 z"
           fill="#7daff0"
           id="path159" /></g><g
         transform="matrix(0.329,0,0,0.329,79,375.25)"
         id="g160"><path
           d="M 10,5 5,0 0,5 l 5,5 -5,5 5,5 5,-5 5,5 5,-5 -5,-5 5,-5 -5,-5 z"
           fill="#45ea5e"
           id="path160" /></g><circle
         cx="115.21"
         cy="378.54001"
         r="3.29"
         fill="#e9d36d"
         id="circle160" /><circle
         cx="148.12"
         cy="378.54001"
         r="3.29"
         fill="#eee2a2"
         id="circle161" /><circle
         cx="181.03999"
         cy="378.54001"
         r="3.29"
         fill="#80b1f1"
         id="circle162" /><g
         transform="matrix(0.329,0,0,0.329,210.67,375.25)"
         id="g162"><path
           d="M 10,5 5,0 0,5 l 5,5 -5,5 5,5 5,-5 5,5 5,-5 -5,-5 5,-5 -5,-5 z"
           fill="#84b4f1"
           id="path162" /></g><g
         transform="matrix(0.329,0,0,0.329,243.58,375.25)"
         id="g163"><path
           d="M 10,5 5,0 0,5 l 5,5 -5,5 5,5 5,-5 5,5 5,-5 -5,-5 5,-5 -5,-5 z"
           fill="#daebfc"
           id="path163" /></g><circle
         cx="279.79001"
         cy="378.54001"
         r="3.29"
         fill="#f0ecc5"
         id="circle163" /><circle
         cx="312.70999"
         cy="378.54001"
         r="3.29"
         fill="#eeeeff"
         id="circle164" /><circle
         cx="345.62"
         cy="378.54001"
         r="3.29"
         fill="#9cf3ae"
         id="circle165" /><g
         transform="matrix(0.329,0,0,0.329,375.25,375.25)"
         id="g165"><path
           d="M 10,5 5,0 0,5 l 5,5 -5,5 5,5 5,-5 5,5 5,-5 -5,-5 5,-5 -5,-5 z"
           fill="#c8e0fa"
           id="path165" /></g><circle
         cx="411.45999"
         cy="378.54001"
         r="3.29"
         fill="#f88b8b"
         id="circle166" /><g
         transform="matrix(0.329,0,0,0.329,441.08,375.25)"
         id="g166"><path
           d="M 10,5 5,0 0,5 l 5,5 -5,5 5,5 5,-5 5,5 5,-5 -5,-5 5,-5 -5,-5 z"
           fill="#c2f7d0"
           id="path166" /></g><circle
         cx="477.29001"
         cy="378.54001"
         r="3.29"
         fill="#5897ec"
         id="circle167" /><g
         transform="matrix(0.329,0,0,0.329,506.92,375.25)"
         id="g167"><path
           d="M 10,5 5,0 0,5 l 5,5 -5,5 5,5 5,-5 5,5 5,-5 -5,-5 5,-5 -5,-5 z"
           fill="#3580e8"
           id="path167" /></g><circle
         cx="543.12"
         cy="378.54001"
         r="3.29"
         fill="#6ea5ef"
         id="circle168" /><circle
         cx="576.03998"
         cy="378.54001"
         r="3.29"
         fill="#c4f8d2"
         id="circle169" /><g
         transform="matrix(0.329,0,0,0.329,605.67,375.25)"
         id="g169"><path
           d="M 10,5 5,0 0,5 l 5,5 -5,5 5,5 5,-5 5,5 5,-5 -5,-5 5,-5 -5,-5 z"
           fill="#f6d9db"
           id="path169" /></g><circle
         cx="641.87"
         cy="378.54001"
         r="3.29"
         fill="#d0affe"
         id="circle170" /><g
         transform="matrix(0.329,0,0,0.329,671.5,375.25)"
         id="g170"><path
           d="M 10,5 5,0 0,5 l 5,5 -5,5 5,5 5,-5 5,5 5,-5 -5,-5 5,-5 -5,-5 z"
           fill="#e8fcf3"
           id="path170" /></g><circle
         cx="707.71002"
         cy="378.54001"
         r="3.29"
         fill="#f5fdff"
         id="circle171" /></g></g></svg>
