<?xml version="1.0" encoding="utf-8"?>
<!-- Generator: Adobe Illustrator 24.3.0, SVG Export Plug-In . SVG Version: 6.00 Build 0)  -->
<svg version="1.1" id="Layer_1" xmlns="http://www.w3.org/2000/svg" xmlns:xlink="http://www.w3.org/1999/xlink" x="0px" y="0px"
	 viewBox="0 0 12 12" style="enable-background:new 0 0 12 12;" xml:space="preserve">
<style type="text/css">
	.st0{fill:#FFFFFF;}
</style>
<path d="M11,6c0,2.8-2.2,5-5,5S1,8.8,1,6s2.2-5,5-5S11,3.2,11,6z M5.2,8.3c0-0.5,0.1-1,0.1-1.4C5.3,6.6,5.4,6.3,5.5,6
	s0.2-0.4,0.3-0.5C5.9,5.4,6,5.3,6.1,5.3l0.9,3h1.3l-1.5-5H5.5l0.3,1C5.5,4.5,5.3,4.6,5.1,4.7C4.9,4.9,4.7,5.1,4.6,5.4
	C4.4,5.7,4.3,6.1,4.2,6.6C4.1,7.1,4,7.6,4,8.3H5.2z"/>
</svg>
