<?xml version="1.0" encoding="utf-8"?>
<!-- Generator: Adobe Illustrator 24.3.0, SVG Export Plug-In . SVG Version: 6.00 Build 0)  -->
<svg version="1.1" id="Layer_1" xmlns="http://www.w3.org/2000/svg" xmlns:xlink="http://www.w3.org/1999/xlink" x="0px" y="0px"
	 viewBox="0 0 12 12" style="enable-background:new 0 0 12 12;" xml:space="preserve">
<style type="text/css">
	.st0{fill:#FFFFFF;}
</style>
<path d="M11,6c0,2.8-2.2,5-5,5S1,8.8,1,6s2.2-5,5-5S11,3.2,11,6z M4.9,8.3C5.1,8.2,5.2,8.1,5.4,8c0.2-0.1,0.3-0.3,0.4-0.5V4.5h0.6
	v3.4h1.2c0.6,0,1-0.2,1.3-0.5c0.3-0.4,0.4-0.9,0.4-1.6c0-0.7-0.1-1.2-0.4-1.6C8.7,3.8,8.3,3.6,7.7,3.6H4.6C4.3,3.6,4,3.7,3.8,3.8
	S3.3,4.1,3.2,4.4S2.9,4.9,2.8,5.2C2.7,5.5,2.6,5.9,2.6,6.2c0,0.5,0.1,0.9,0.2,1.2S3.1,8,3.4,8.2c0.2,0.2,0.5,0.2,0.9,0.2
	C4.5,8.4,4.7,8.4,4.9,8.3z M4,7.4C3.9,7.3,3.9,7.1,3.9,6.9c0-0.2,0-0.4,0-0.7c0-0.3,0-0.5,0.1-0.7S4,5.1,4,4.9
	c0.1-0.1,0.1-0.3,0.2-0.3s0.2-0.1,0.3-0.1h0.1v2.9c0,0-0.1,0.1-0.1,0.1c-0.1,0-0.1,0-0.2,0C4.2,7.5,4.1,7.5,4,7.4z M7.6,4.5L7.6,4.5
	c0.2,0,0.2,0,0.3,0.1C8,4.6,8,4.6,8.1,4.7c0,0.1,0.1,0.2,0.1,0.4c0,0.2,0,0.3,0,0.6c0,0.2,0,0.4,0,0.6S8.1,6.6,8.1,6.7
	S8,6.8,7.9,6.9C7.8,6.9,7.7,7,7.7,7H7.6V4.5z"/>
</svg>
