<?xml version="1.0" encoding="utf-8"?>
<!-- Generator: Adobe Illustrator 24.3.0, SVG Export Plug-In . SVG Version: 6.00 Build 0)  -->
<svg version="1.1" id="Layer_1" xmlns="http://www.w3.org/2000/svg" xmlns:xlink="http://www.w3.org/1999/xlink" x="0px" y="0px"
	 viewBox="0 0 12 12" style="enable-background:new 0 0 12 12;" xml:space="preserve">
<style type="text/css">
	.st0{fill:#FFFFFF;}
</style>
<path d="M11,6c0,2.8-2.2,5-5,5S1,8.8,1,6s2.2-5,5-5S11,3.2,11,6z M4.6,8.1V6.7c0-0.3,0.1-0.5,0.2-0.6C5,6,5.2,5.9,5.4,5.9v2.3h1.2
	V5.9C6.8,5.9,7,6,7.2,6.1s0.2,0.4,0.2,0.6v1.4h1.3V6.7c0-0.6-0.2-1-0.5-1.3C7.8,5.1,7.3,4.9,6.6,4.8V3.2H5.4v1.7
	c-0.6,0-1.1,0.2-1.5,0.5C3.6,5.7,3.4,6.1,3.4,6.7v1.4H4.6z"/>
</svg>
