<?xml version="1.0" encoding="utf-8"?>
<!-- Generator: Adobe Illustrator 24.3.0, SVG Export Plug-In . SVG Version: 6.00 Build 0)  -->
<svg version="1.1" id="Layer_1" xmlns="http://www.w3.org/2000/svg" xmlns:xlink="http://www.w3.org/1999/xlink" x="0px" y="0px"
	 viewBox="0 0 12 12" style="enable-background:new 0 0 12 12;" xml:space="preserve">
<style type="text/css">
	.st0{fill:#FFFFFF;}
</style>
<path d="M11,6c0,2.8-2.2,5-5,5S1,8.8,1,6s2.2-5,5-5S11,3.2,11,6z M7,8.3C7.3,8.2,7.5,8,7.6,7.7c0.1-0.3,0.2-0.5,0.2-0.9V3.5H6.5v3.2
	c0,0.2,0,0.3-0.1,0.4c0,0.1-0.1,0.2-0.2,0.2C6.2,7.4,6.1,7.4,6,7.4c-0.2,0-0.3-0.1-0.4-0.2S5.5,7,5.5,6.7V3.5H4.2v3.3
	c0,0.4,0.1,0.7,0.2,0.9C4.5,8,4.7,8.2,5,8.3c0.3,0.1,0.6,0.2,1,0.2C6.4,8.5,6.7,8.4,7,8.3z"/>
</svg>
